<?xml version="1.0" encoding="iso-8859-1"?>
<!-- Uploaded to: SVG Repo, www.svgrepo.com, Generator: SVG Repo Mixer Tools -->
<svg version="1.1" id="Layer_1" xmlns="http://www.w3.org/2000/svg" xmlns:xlink="http://www.w3.org/1999/xlink" 
	 viewBox="0 0 496.2 496.2" xml:space="preserve">
<path style="fill:#25B7D3;" d="M496.2,248.1C496.2,111.1,385.1,0,248.1,0S0,111.1,0,248.1s111.1,248.1,248.1,248.1
	S496.2,385.1,496.2,248.1z"/>
<polygon style="fill:#AD6E3A;" points="277.4,392.1 78.9,354.1 78.9,265.1 277.4,303.1 "/>
<polygon style="fill:#6D4121;" points="377.3,259.5 178.1,220.3 175.1,216.4 218.8,108.6 414.3,142.1 417.3,146.6 "/>
<polygon style="fill:#845229;" points="377.3,259.5 373.8,254.6 175.1,216.4 218.8,108.6 414.3,142.1 417.3,146.6 "/>
<polygon style="fill:#96602C;" points="373.6,254.4 175.1,216.4 215.8,104.1 414.3,142.1 "/>
<polygon style="fill:#E8D78E;" points="369,240.4 192.6,206.3 224.6,118 400.9,152.2 "/>
<g>
	
		<rect x="227.603" y="150.098" transform="matrix(-0.9823 -0.1873 0.1873 -0.9823 581.6602 357.1541)" style="fill:#DDC76B;" width="160.2" height="2"/>
	
		<rect x="219.801" y="166.605" transform="matrix(-0.9823 -0.1873 0.1873 -0.9823 563.1017 388.4146)" style="fill:#DDC76B;" width="160.2" height="2"/>
	
		<rect x="213.901" y="184.09" transform="matrix(-0.9823 -0.1873 0.1873 -0.9823 548.1305 421.9704)" style="fill:#DDC76B;" width="160.2" height="2"/>
	
		<rect x="206.095" y="200.597" transform="matrix(-0.9823 -0.1873 0.1873 -0.9823 529.5661 453.2303)" style="fill:#DDC76B;" width="160.2" height="2"/>
</g>
<path style="fill:#B2A052;" d="M312.6,201c5.7-11,11.1-22.6,16.5-34c-13,0.4-29.4-2.5-44.6-7.7c-5.3,10.5-9.8,20-15,31
	c-1.6,3.3-2.9,7.5-4.9,10c-6.9,8.8-31.6,2-28.8-10.6c2.8-12.7,26.3-7.7,29.9,2.3c7.5-15.1,14.7-30.7,22.2-45.7
	c17.4,6,34.5,7.7,49.7,8.3c-2.7,6.9-8,17.7-13,27.8c-4.7,9.5-8.5,20.4-13.2,27c-6,8.4-29.8,2.5-28.8-9.1
	C283.9,185.5,309.4,190.9,312.6,201z"/>
<polygon style="fill:#DBDB3E;" points="340.1,251.9 193.9,223.8 200.1,221.2 344.4,248.9 "/>
<polygon style="fill:#C17948;" points="277.4,303.1 78.9,265.1 168.9,219.1 369.4,257.6 "/>
<polygon style="fill:#845229;" points="278.6,297.3 95.9,262.8 171.9,225.3 354.1,260.7 "/>
<polygon style="fill:#CD9795;" points="278.7,297 101.3,263.9 171.9,229.3 348.9,263.3 "/>
<polygon style="fill:#DBAFAF;" points="278.7,297 101.3,263.9 171.9,229.3 "/>
<polygon style="fill:#96602C;" points="277.4,392.1 369.4,346.6 369.4,257.6 277.4,303.1 "/>
<ellipse transform="matrix(0.1564 -0.9877 0.9877 0.1564 -10.4709 604.9437)" style="fill:#5B371D;" cx="348.901" cy="308.602" rx="12" ry="8.3"/>
<path style="fill:#352113;" d="M353,309.3c-1,6.2-4.4,10.8-7.7,10.2c-3.3-0.5-5.5-6-4.5-12.2s4.8-10.7,8.1-10.2
	C352.1,297.6,353.9,303.1,353,309.3z"/>
<g>
	<path style="fill:#393A3A;" d="M396.6,287.3l-23.2-4.2c-1.9-0.3-3.7,0.9-4.1,2.7l-4.6,21.2l-23-2.5c-0.1,0-0.2,0-0.3,0
		c-0.3,0.9-0.5,1.9-0.7,3c-0.2,1.4-0.3,2.7-0.2,3.9c0.2,0,0.3,0.1,0.5,0.1l26.2,2.8c0.1,0,0.3,0,0.4,0c1.6,0,3.1-1.1,3.4-2.8
		l4.5-20.9l19.9,3.6c1.9,0.3,3.7-0.9,4.1-2.8C399.8,289.4,398.5,287.6,396.6,287.3z"/>
	
		<ellipse transform="matrix(0.1564 -0.9877 0.9877 0.1564 47.8803 638.2855)" style="fill:#393A3A;" cx="397.595" cy="291.113" rx="9.7" ry="9.5"/>
</g>
<ellipse transform="matrix(0.0191 -0.9998 0.9998 0.0191 104.3641 678.1664)" style="fill:#E0E2E2;" cx="397.791" cy="285.897" rx="3" ry="5.1"/>
</svg>